<svg width="24" height="24" viewBox="0 0 24 24" fill="none" xmlns="http://www.w3.org/2000/svg">
<path d="M18.25 17.25H5.75C5.48478 17.25 5.23043 17.1446 5.04289 16.9571C4.85536 16.7696 4.75 16.5152 4.75 16.25V12.75C4.75 12.2196 4.96071 11.7109 5.33579 11.3358C5.71086 10.9607 6.21957 10.75 6.75 10.75H17.25C17.7804 10.75 18.2891 10.9607 18.6642 11.3358C19.0393 11.7109 19.25 12.2196 19.25 12.75V16.25C19.25 16.5152 19.1446 16.7696 18.9571 16.9571C18.7696 17.1446 18.5152 17.25 18.25 17.25Z" stroke="black" stroke-width="1.5" stroke-linecap="square"/>
<path d="M8.5 14C8.5 14.1326 8.44732 14.2598 8.35355 14.3536C8.25979 14.4473 8.13261 14.5 8 14.5C7.86739 14.5 7.74021 14.4473 7.64645 14.3536C7.55268 14.2598 7.5 14.1326 7.5 14C7.5 13.8674 7.55268 13.7402 7.64645 13.6464C7.74021 13.5527 7.86739 13.5 8 13.5C8.13261 13.5 8.25979 13.5527 8.35355 13.6464C8.44732 13.7402 8.5 13.8674 8.5 14ZM16.5 14C16.5 14.1326 16.4473 14.2598 16.3536 14.3536C16.2598 14.4473 16.1326 14.5 16 14.5C15.8674 14.5 15.7402 14.4473 15.6464 14.3536C15.5527 14.2598 15.5 14.1326 15.5 14C15.5 13.8674 15.5527 13.7402 15.6464 13.6464C15.7402 13.5527 15.8674 13.5 16 13.5C16.1326 13.5 16.2598 13.5527 16.3536 13.6464C16.4473 13.7402 16.5 13.8674 16.5 14Z" stroke="black" stroke-linecap="square"/>
<path d="M6.75 17.75V19.25M17.25 17.75V19.25M18.25 10.75H5.75L6.471 6.421C6.54888 5.95401 6.7899 5.52979 7.15118 5.22381C7.51245 4.91784 7.97056 4.74994 8.444 4.75H15.556C16.0294 4.74994 16.4875 4.91784 16.8488 5.22381C17.2101 5.52979 17.4511 5.95401 17.529 6.421L18.25 10.75Z" stroke="black" stroke-width="1.5" stroke-linecap="square"/>
</svg>
