<svg width="24" height="24" viewBox="0 0 24 24" fill="none" xmlns="http://www.w3.org/2000/svg">
<path d="M4.75 19.25L8.5 15.5M13.75 7.25L16.25 4.75M16.75 10.25L19.25 7.75M18.281 12.031L11.97 5.72C11.8587 5.60869 11.7227 5.52523 11.573 5.47641C11.4234 5.42759 11.2643 5.4148 11.1087 5.43906C10.9532 5.46333 10.8056 5.52397 10.6779 5.61606C10.5502 5.70814 10.4461 5.82907 10.374 5.969L6.75 13L11 17.25L18.032 13.627C18.172 13.555 18.293 13.4509 18.3852 13.3233C18.4774 13.1957 18.5381 13.0481 18.5625 12.8925C18.5869 12.737 18.5742 12.5779 18.5254 12.4282C18.4767 12.2785 18.3923 12.1424 18.281 12.031Z" stroke="black" stroke-width="1.5" stroke-linecap="square"/>
</svg>
