<svg width="24" height="24" viewBox="0 0 24 24" fill="none" xmlns="http://www.w3.org/2000/svg">
<path d="M12 10.7502C13.6569 10.7502 15 9.4071 15 7.75024C15 6.09339 13.6569 4.75024 12 4.75024C10.3431 4.75024 9 6.09339 9 7.75024C9 9.4071 10.3431 10.7502 12 10.7502Z" stroke="black" stroke-width="2.5"/>
<path d="M7.5 19.0002C9.15685 19.0002 10.5 17.6571 10.5 16.0002C10.5 14.3434 9.15685 13.0002 7.5 13.0002C5.84315 13.0002 4.5 14.3434 4.5 16.0002C4.5 17.6571 5.84315 19.0002 7.5 19.0002Z" stroke="black" stroke-width="2.5"/>
<path d="M16.5 19.0002C18.1569 19.0002 19.5 17.6571 19.5 16.0002C19.5 14.3434 18.1569 13.0002 16.5 13.0002C14.8431 13.0002 13.5 14.3434 13.5 16.0002C13.5 17.6571 14.8431 19.0002 16.5 19.0002Z" stroke="black" stroke-width="2.5"/>
</svg>
