<svg width="24" height="24" viewBox="0 0 24 24" fill="none" xmlns="http://www.w3.org/2000/svg">
<path d="M6.75 9.5V10.25C6.75 10.7804 6.96071 11.2891 7.33579 11.6642C7.71086 12.0393 8.21957 12.25 8.75 12.25H12M12 12.25H15.25C15.7804 12.25 16.2891 12.0393 16.6642 11.6642C17.0393 11.2891 17.25 10.7804 17.25 10.25V9.5M12 12.25V14.5M9.25 7C9.25 7.29547 9.1918 7.58806 9.07873 7.86104C8.96566 8.13402 8.79992 8.38206 8.59099 8.59099C8.38206 8.79992 8.13402 8.96566 7.86104 9.07873C7.58806 9.1918 7.29547 9.25 7 9.25C6.70453 9.25 6.41194 9.1918 6.13896 9.07873C5.86598 8.96566 5.61794 8.79992 5.40901 8.59099C5.20008 8.38206 5.03434 8.13402 4.92127 7.86104C4.8082 7.58806 4.75 7.29547 4.75 7C4.75 6.40326 4.98705 5.83097 5.40901 5.40901C5.83097 4.98705 6.40326 4.75 7 4.75C7.59674 4.75 8.16903 4.98705 8.59099 5.40901C9.01295 5.83097 9.25 6.40326 9.25 7ZM19.25 7C19.25 7.59674 19.0129 8.16903 18.591 8.59099C18.169 9.01295 17.5967 9.25 17 9.25C16.4033 9.25 15.831 9.01295 15.409 8.59099C14.9871 8.16903 14.75 7.59674 14.75 7C14.75 6.40326 14.9871 5.83097 15.409 5.40901C15.831 4.98705 16.4033 4.75 17 4.75C17.5967 4.75 18.169 4.98705 18.591 5.40901C19.0129 5.83097 19.25 6.40326 19.25 7ZM14.25 17C14.25 17.5967 14.0129 18.169 13.591 18.591C13.169 19.0129 12.5967 19.25 12 19.25C11.4033 19.25 10.831 19.0129 10.409 18.591C9.98705 18.169 9.75 17.5967 9.75 17C9.75 16.4033 9.98705 15.831 10.409 15.409C10.831 14.9871 11.4033 14.75 12 14.75C12.5967 14.75 13.169 14.9871 13.591 15.409C14.0129 15.831 14.25 16.4033 14.25 17Z" stroke="black" stroke-width="1.5" stroke-linecap="square" stroke-linejoin="round"/>
</svg>
