<svg width="24" height="24" viewBox="0 0 24 24" fill="none" xmlns="http://www.w3.org/2000/svg">
<path d="M7.75 9.75V14.25M11.25 9.75V14.25M17.75 10.75H18C18.3315 10.75 18.6495 10.8817 18.8839 11.1161C19.1183 11.3505 19.25 11.6685 19.25 12C19.25 12.3315 19.1183 12.6495 18.8839 12.8839C18.6495 13.1183 18.3315 13.25 18 13.25H17.75M4.75 8.75C4.75 8.21957 4.96071 7.71086 5.33579 7.33579C5.71086 6.96071 6.21957 6.75 6.75 6.75H15.25C15.7804 6.75 16.2891 6.96071 16.6642 7.33579C17.0393 7.71086 17.25 8.21957 17.25 8.75V15.25C17.25 15.7804 17.0393 16.2891 16.6642 16.6642C16.2891 17.0393 15.7804 17.25 15.25 17.25H6.75C6.21957 17.25 5.71086 17.0393 5.33579 16.6642C4.96071 16.2891 4.75 15.7804 4.75 15.25V8.75Z" stroke="black" stroke-width="1.5" stroke-linecap="square"/>
</svg>
