<svg width="24" height="24" viewBox="0 0 24 24" fill="none" xmlns="http://www.w3.org/2000/svg">
<path d="M6.75 19.25H17.25C17.7804 19.25 18.2891 19.0393 18.6642 18.6642C19.0393 18.2891 19.25 17.7804 19.25 17.25V9.75L12 4.75L4.75 9.75V17.25C4.75 17.7804 4.96071 18.2891 5.33579 18.6642C5.71086 19.0393 6.21957 19.25 6.75 19.25Z" stroke="black" stroke-width="1.5" stroke-linecap="round"/>
<path d="M9.75 15.75C9.75 15.2196 9.96071 14.7109 10.3358 14.3358C10.7109 13.9607 11.2196 13.75 11.75 13.75H12.25C12.7804 13.75 13.2891 13.9607 13.6642 14.3358C14.0393 14.7109 14.25 15.2196 14.25 15.75V19.25H9.75V15.75Z" stroke="black" stroke-width="1.5" stroke-linecap="round"/>
</svg>
