<svg width="24" height="24" viewBox="0 0 24 24" fill="none" xmlns="http://www.w3.org/2000/svg">
<path d="M14.464 8.95004C14.2765 8.76252 14.1712 8.50821 14.1712 8.24304C14.1712 7.97788 14.2765 7.72357 14.464 7.53604L16.834 5.16604C16.0405 4.78543 15.1484 4.66056 14.2808 4.80866C13.4133 4.95676 12.6131 5.37053 11.9908 5.99285C11.3685 6.61516 10.9547 7.41532 10.8066 8.28286C10.6585 9.1504 10.7834 10.0425 11.164 10.836L5.164 16.836C4.89878 17.1013 4.74979 17.461 4.74979 17.836C4.74979 18.2111 4.89878 18.5708 5.164 18.836C5.42922 19.1013 5.78893 19.2503 6.164 19.2503C6.53907 19.2503 6.89878 19.1013 7.164 18.836L13.165 12.835C13.9566 13.2146 14.8464 13.3397 15.712 13.1931C16.5776 13.0465 17.3765 12.6354 17.9991 12.0164C18.6216 11.3974 19.0372 10.6008 19.1886 9.73601C19.3401 8.87126 19.2201 7.98081 18.845 7.18704L16.48 9.55004C16.2925 9.73751 16.0382 9.84283 15.773 9.84283C15.5078 9.84283 15.2535 9.73751 15.066 9.55004L14.464 8.95004Z" stroke="black" stroke-width="1.5" stroke-linecap="round"/>
</svg>
