<svg width="24" height="24" viewBox="0 0 24 24" fill="none" xmlns="http://www.w3.org/2000/svg">
<path d="M12 19.25C12.9521 19.25 13.8948 19.0625 14.7745 18.6981C15.6541 18.3338 16.4533 17.7997 17.1265 17.1265C17.7997 16.4533 18.3338 15.6541 18.6981 14.7745C19.0625 13.8948 19.25 12.9521 19.25 12C19.25 11.0479 19.0625 10.1052 18.6981 9.22554C18.3338 8.34593 17.7997 7.5467 17.1265 6.87348C16.4533 6.20025 15.6541 5.66622 14.7745 5.30187C13.8948 4.93753 12.9521 4.75 12 4.75C10.0772 4.75 8.23311 5.51384 6.87348 6.87348C5.51384 8.23311 4.75 10.0772 4.75 12C4.75 13.9228 5.51384 15.7669 6.87348 17.1265C8.23311 18.4862 10.0772 19.25 12 19.25Z" stroke="black" stroke-width="1.5" stroke-linecap="round" stroke-linejoin="round"/>
<path d="M19 12.25H11.75V5" stroke="black" stroke-width="1.5" stroke-linecap="square"/>
</svg>
